<svg id="visual" viewBox="0 0 900 300" width="900" height="300" xmlns="http://www.w3.org/2000/svg" xmlns:xlink="http://www.w3.org/1999/xlink" version="1.1"><rect x="0" y="0" width="900" height="300" fill="#E0DDCF"></rect><path d="M0 97L21.5 115.5C43 134 86 171 128.8 176.7C171.7 182.3 214.3 156.7 257.2 151.7C300 146.7 343 162.3 385.8 163.3C428.7 164.3 471.3 150.7 514.2 154.8C557 159 600 181 642.8 176C685.7 171 728.3 139 771.2 131.8C814 124.7 857 142.3 878.5 151.2L900 160L900 0L878.5 0C857 0 814 0 771.2 0C728.3 0 685.7 0 642.8 0C600 0 557 0 514.2 0C471.3 0 428.7 0 385.8 0C343 0 300 0 257.2 0C214.3 0 171.7 0 128.8 0C86 0 43 0 21.5 0L0 0Z" fill="#1A1B2B" stroke-linecap="round" stroke-linejoin="miter"></path></svg>