<svg id="visual" viewBox="0 0 1800 300" width="1800" height="300" xmlns="http://www.w3.org/2000/svg" xmlns:xlink="http://www.w3.org/1999/xlink" version="1.1"><path d="M0 175L25 162C50 149 100 123 150 112.8C200 102.7 250 108.3 300 112.3C350 116.3 400 118.7 450 133.3C500 148 550 175 600 175.8C650 176.7 700 151.3 750 135C800 118.7 850 111.3 900 115.8C950 120.3 1000 136.7 1050 137.2C1100 137.7 1150 122.3 1200 113.5C1250 104.7 1300 102.3 1350 109.5C1400 116.7 1450 133.3 1500 143.2C1550 153 1600 156 1650 155.5C1700 155 1750 151 1775 149L1800 147L1800 301L1775 301C1750 301 1700 301 1650 301C1600 301 1550 301 1500 301C1450 301 1400 301 1350 301C1300 301 1250 301 1200 301C1150 301 1100 301 1050 301C1000 301 950 301 900 301C850 301 800 301 750 301C700 301 650 301 600 301C550 301 500 301 450 301C400 301 350 301 300 301C250 301 200 301 150 301C100 301 50 301 25 301L0 301Z" fill="#1A1B2B" stroke-linecap="round" stroke-linejoin="miter"></path></svg>